<svg xmlns="http://www.w3.org/2000/svg" xmlns:xlink="http://www.w3.org/1999/xlink" width="561" zoomAndPan="magnify" viewBox="0 0 420.75 199.499995" height="266" preserveAspectRatio="xMidYMid meet" version="1.0"><defs><g/><clipPath id="81494e477a"><path d="M 2 57 L 97 57 L 97 154 L 2 154 Z M 2 57 " clip-rule="nonzero"/></clipPath><clipPath id="1b63f06901"><path d="M 58.554688 25.050781 L 132.515625 89.355469 L 74.59375 155.976562 L 0.632812 91.671875 Z M 58.554688 25.050781 " clip-rule="nonzero"/></clipPath><clipPath id="6349dcf5e2"><path d="M 58.554688 25.050781 L 132.515625 89.355469 L 74.59375 155.976562 L 0.632812 91.671875 Z M 58.554688 25.050781 " clip-rule="nonzero"/></clipPath><clipPath id="abc715279d"><path d="M 4 59 L 99 59 L 99 156 L 4 156 Z M 4 59 " clip-rule="nonzero"/></clipPath><clipPath id="7a26d564bb"><path d="M 60.546875 26.785156 L 134.507812 91.085938 L 76.585938 157.707031 L 2.625 93.40625 Z M 60.546875 26.785156 " clip-rule="nonzero"/></clipPath><clipPath id="af69bda599"><path d="M 60.546875 26.785156 L 134.507812 91.085938 L 76.585938 157.707031 L 2.625 93.40625 Z M 60.546875 26.785156 " clip-rule="nonzero"/></clipPath><clipPath id="276b69f1c3"><path d="M 4 57 L 99 57 L 99 154 L 4 154 Z M 4 57 " clip-rule="nonzero"/></clipPath><clipPath id="6d50bb2277"><path d="M 60.191406 25.085938 L 134.152344 89.386719 L 76.234375 156.007812 L 2.273438 91.707031 Z M 60.191406 25.085938 " clip-rule="nonzero"/></clipPath><clipPath id="c0b6194114"><path d="M 60.191406 25.085938 L 134.152344 89.386719 L 76.234375 156.007812 L 2.273438 91.707031 Z M 60.191406 25.085938 " clip-rule="nonzero"/></clipPath><clipPath id="3f21650088"><path d="M 4 55 L 99 55 L 99 153 L 4 153 Z M 4 55 " clip-rule="nonzero"/></clipPath><clipPath id="f528fb312e"><path d="M 60.191406 23.589844 L 134.152344 87.890625 L 76.234375 154.511719 L 2.273438 90.210938 Z M 60.191406 23.589844 " clip-rule="nonzero"/></clipPath><clipPath id="c6a4a79b0f"><path d="M 60.191406 23.589844 L 134.152344 87.890625 L 76.234375 154.511719 L 2.273438 90.210938 Z M 60.191406 23.589844 " clip-rule="nonzero"/></clipPath></defs><g fill="#f8cc74" fill-opacity="1"><g transform="translate(100.603505, 137.155531)"><g><path d="M 5.675781 0 L 5.675781 -58.265625 L 22.203125 -58.265625 L 22.203125 -47.578125 L 21.46875 -47.578125 L 21.46875 -48.3125 L 21.992188 -48.3125 L 21.992188 -47.578125 L 21.289062 -47.789062 C 22.378906 -51.453125 24.203125 -54.230469 26.769531 -56.117188 C 29.328125 -58 32.359375 -58.945312 35.855469 -58.945312 C 36.707031 -58.945312 37.59375 -58.910156 38.515625 -58.835938 C 39.449219 -58.765625 40.265625 -58.65625 40.957031 -58.511719 L 41.539062 -58.390625 L 41.539062 -43.035156 L 40.582031 -43.335938 C 39.972656 -43.527344 39.042969 -43.683594 37.792969 -43.800781 C 36.511719 -43.917969 35.273438 -43.980469 34.082031 -43.980469 C 31.914062 -43.980469 29.953125 -43.503906 28.203125 -42.554688 C 26.46875 -41.617188 25.113281 -40.285156 24.140625 -38.566406 C 23.164062 -36.835938 22.671875 -34.785156 22.671875 -32.414062 L 22.671875 0.734375 L 5.675781 0.734375 Z M 7.144531 0 L 6.410156 0 L 6.410156 -0.734375 L 21.941406 -0.734375 L 21.941406 0 L 21.207031 0 L 21.207031 -32.414062 C 21.207031 -35.042969 21.757812 -37.335938 22.863281 -39.289062 C 23.976562 -41.253906 25.523438 -42.773438 27.503906 -43.847656 C 29.472656 -44.914062 31.664062 -45.445312 34.082031 -45.445312 C 35.320312 -45.445312 36.601562 -45.386719 37.929688 -45.261719 C 39.28125 -45.132812 40.316406 -44.960938 41.027344 -44.734375 L 40.804688 -44.035156 L 40.070312 -44.035156 L 40.070312 -57.792969 L 40.804688 -57.792969 L 40.652344 -57.074219 C 40.023438 -57.207031 39.273438 -57.308594 38.402344 -57.375 C 37.519531 -57.441406 36.667969 -57.476562 35.855469 -57.476562 C 32.679688 -57.476562 29.941406 -56.628906 27.636719 -54.933594 C 25.339844 -53.242188 23.691406 -50.722656 22.695312 -47.371094 L 22.539062 -46.84375 L 20.738281 -46.84375 L 20.738281 -57.53125 L 21.46875 -57.53125 L 21.46875 -56.800781 L 6.410156 -56.800781 L 6.410156 -57.53125 L 7.144531 -57.53125 Z M 7.144531 0 "/></g></g></g><g fill="#f8cc74" fill-opacity="1"><g transform="translate(138.051145, 137.155531)"><g><path d="M 32.464844 1.878906 C 26.464844 1.878906 21.28125 0.632812 16.910156 -1.863281 C 12.53125 -4.367188 9.152344 -7.90625 6.773438 -12.480469 C 4.410156 -17.035156 3.226562 -22.375 3.226562 -28.503906 C 3.226562 -34.566406 4.398438 -39.878906 6.746094 -44.449219 C 9.105469 -49.035156 12.425781 -52.625 16.714844 -55.214844 C 21 -57.804688 26.007812 -59.101562 31.738281 -59.101562 C 35.683594 -59.101562 39.347656 -58.460938 42.730469 -57.175781 C 46.128906 -55.890625 49.105469 -53.984375 51.664062 -51.464844 C 54.226562 -48.9375 56.210938 -45.792969 57.621094 -42.027344 C 59.023438 -38.277344 59.726562 -33.960938 59.726562 -29.078125 L 59.726562 -24.019531 L 9.429688 -24.019531 L 9.429688 -35.285156 L 51.4375 -35.285156 L 51.679688 -33.859375 L 43.457031 -30.960938 L 43.457031 -31.996094 C 43.457031 -34.886719 43.007812 -37.375 42.109375 -39.472656 C 41.230469 -41.527344 39.941406 -43.113281 38.238281 -44.230469 C 36.539062 -45.347656 34.421875 -45.90625 31.894531 -45.90625 C 29.363281 -45.90625 27.21875 -45.339844 25.464844 -44.203125 C 23.707031 -43.0625 22.363281 -41.496094 21.433594 -39.503906 C 20.488281 -37.484375 20.015625 -35.15625 20.015625 -32.519531 L 20.015625 -25.640625 C 20.015625 -22.523438 20.546875 -19.886719 21.609375 -17.730469 C 22.652344 -15.605469 24.128906 -14 26.03125 -12.910156 C 27.949219 -11.808594 30.199219 -11.261719 32.777344 -11.261719 C 34.535156 -11.261719 36.128906 -11.515625 37.5625 -12.027344 C 38.972656 -12.527344 40.171875 -13.253906 41.152344 -14.207031 C 42.132812 -15.15625 42.882812 -16.324219 43.398438 -17.714844 L 43.605469 -18.269531 L 59.136719 -16.035156 L 58.917969 -15.234375 C 57.984375 -11.78125 56.300781 -8.765625 53.871094 -6.191406 C 51.449219 -3.628906 48.425781 -1.640625 44.796875 -0.226562 C 41.183594 1.175781 37.074219 1.878906 32.464844 1.878906 Z M 32.464844 0.414062 C 36.890625 0.414062 40.824219 -0.257812 44.265625 -1.597656 C 47.6875 -2.929688 50.535156 -4.796875 52.804688 -7.199219 C 55.066406 -9.59375 56.628906 -12.402344 57.503906 -15.617188 L 58.210938 -15.425781 L 58.105469 -14.699219 L 43.984375 -16.730469 L 44.085938 -17.457031 L 44.773438 -17.203125 C 44.179688 -15.605469 43.3125 -14.253906 42.175781 -13.152344 C 41.039062 -12.054688 39.664062 -11.21875 38.054688 -10.644531 C 36.464844 -10.078125 34.703125 -9.792969 32.777344 -9.792969 C 29.9375 -9.792969 27.445312 -10.40625 25.300781 -11.636719 C 23.140625 -12.875 21.46875 -14.6875 20.292969 -17.082031 C 19.128906 -19.441406 18.546875 -22.292969 18.546875 -25.640625 L 18.546875 -32.519531 C 18.546875 -35.371094 19.066406 -37.90625 20.101562 -40.125 C 21.152344 -42.371094 22.671875 -44.140625 24.667969 -45.433594 C 26.664062 -46.726562 29.074219 -47.375 31.894531 -47.375 C 34.714844 -47.375 37.097656 -46.734375 39.042969 -45.457031 C 40.992188 -44.175781 42.464844 -42.375 43.460938 -40.050781 C 44.4375 -37.769531 44.925781 -35.085938 44.925781 -31.996094 L 44.191406 -31.996094 L 43.949219 -32.6875 L 51.191406 -35.242188 L 51.4375 -34.550781 L 51.4375 -33.816406 L 10.160156 -33.816406 L 10.160156 -34.550781 L 10.894531 -34.550781 L 10.894531 -24.753906 L 10.160156 -24.753906 L 10.160156 -25.488281 L 58.992188 -25.488281 L 58.992188 -24.753906 L 58.257812 -24.753906 L 58.257812 -29.078125 C 58.257812 -33.785156 57.585938 -37.929688 56.246094 -41.511719 C 54.910156 -45.074219 53.039062 -48.042969 50.632812 -50.417969 C 48.222656 -52.792969 45.417969 -54.589844 42.210938 -55.804688 C 38.996094 -57.023438 35.503906 -57.632812 31.738281 -57.632812 C 26.28125 -57.632812 21.523438 -56.410156 17.472656 -53.960938 C 13.421875 -51.511719 10.28125 -48.121094 8.054688 -43.777344 C 5.8125 -39.417969 4.695312 -34.328125 4.695312 -28.503906 C 4.695312 -22.613281 5.820312 -17.5 8.078125 -13.15625 C 10.320312 -8.839844 13.507812 -5.5 17.640625 -3.136719 C 21.78125 -0.769531 26.726562 0.414062 32.464844 0.414062 Z M 32.464844 0.414062 "/></g></g></g><g fill="#f8cc74" fill-opacity="1"><g transform="translate(197.698413, 137.155531)"><g><path d="M 22.671875 -33.039062 L 22.671875 0.734375 L 5.675781 0.734375 L 5.675781 -58.265625 L 21.933594 -58.265625 L 22.164062 -42.3125 L 19.109375 -42.3125 L 19.417969 -43.269531 C 21.023438 -48.265625 23.453125 -52.148438 26.703125 -54.914062 C 29.984375 -57.703125 34.179688 -59.101562 39.292969 -59.101562 C 43.421875 -59.101562 47.035156 -58.199219 50.136719 -56.394531 C 53.25 -54.585938 55.65625 -51.980469 57.355469 -48.585938 C 59.039062 -45.214844 59.882812 -41.179688 59.882812 -36.480469 L 59.882812 0.734375 L 42.886719 0.734375 L 42.886719 -33.71875 C 42.886719 -37.175781 42.027344 -39.851562 40.3125 -41.746094 C 38.617188 -43.617188 36.226562 -44.550781 33.144531 -44.550781 C 31.085938 -44.550781 29.269531 -44.105469 27.695312 -43.214844 C 26.132812 -42.328125 24.910156 -41.046875 24.019531 -39.367188 C 23.121094 -37.667969 22.671875 -35.558594 22.671875 -33.039062 Z M 21.207031 -33.039062 C 21.207031 -35.800781 21.710938 -38.140625 22.722656 -40.054688 C 23.746094 -41.984375 25.160156 -43.464844 26.972656 -44.492188 C 28.769531 -45.511719 30.824219 -46.019531 33.144531 -46.019531 C 36.660156 -46.019531 39.414062 -44.921875 41.402344 -42.730469 C 43.367188 -40.558594 44.351562 -37.554688 44.351562 -33.71875 L 44.351562 0 L 43.617188 0 L 43.617188 -0.734375 L 59.148438 -0.734375 L 59.148438 0 L 58.414062 0 L 58.414062 -36.480469 C 58.414062 -40.949219 57.625 -44.765625 56.042969 -47.929688 C 54.476562 -51.0625 52.261719 -53.464844 49.398438 -55.125 C 46.523438 -56.796875 43.15625 -57.632812 39.292969 -57.632812 C 34.539062 -57.632812 30.660156 -56.355469 27.652344 -53.796875 C 24.613281 -51.210938 22.335938 -47.550781 20.8125 -42.820312 L 20.117188 -43.046875 L 20.117188 -43.777344 L 21.417969 -43.777344 L 21.417969 -43.046875 L 20.683594 -43.035156 L 20.476562 -57.523438 L 21.210938 -57.53125 L 21.210938 -56.800781 L 6.410156 -56.800781 L 6.410156 -57.53125 L 7.144531 -57.53125 L 7.144531 0 L 6.410156 0 L 6.410156 -0.734375 L 21.941406 -0.734375 L 21.941406 0 L 21.207031 0 Z M 21.207031 -33.039062 "/></g></g></g><g fill="#f8cc74" fill-opacity="1"><g transform="translate(260.159711, 137.155531)"><g><path d="M 32.464844 1.878906 C 26.464844 1.878906 21.28125 0.632812 16.910156 -1.863281 C 12.53125 -4.367188 9.152344 -7.90625 6.773438 -12.480469 C 4.410156 -17.035156 3.226562 -22.375 3.226562 -28.503906 C 3.226562 -34.566406 4.398438 -39.878906 6.746094 -44.449219 C 9.105469 -49.035156 12.425781 -52.625 16.714844 -55.214844 C 21 -57.804688 26.007812 -59.101562 31.738281 -59.101562 C 35.683594 -59.101562 39.347656 -58.460938 42.730469 -57.175781 C 46.128906 -55.890625 49.105469 -53.984375 51.664062 -51.464844 C 54.226562 -48.9375 56.210938 -45.792969 57.621094 -42.027344 C 59.023438 -38.277344 59.726562 -33.960938 59.726562 -29.078125 L 59.726562 -24.019531 L 9.429688 -24.019531 L 9.429688 -35.285156 L 51.4375 -35.285156 L 51.679688 -33.859375 L 43.457031 -30.960938 L 43.457031 -31.996094 C 43.457031 -34.886719 43.007812 -37.375 42.109375 -39.472656 C 41.230469 -41.527344 39.941406 -43.113281 38.238281 -44.230469 C 36.539062 -45.347656 34.421875 -45.90625 31.894531 -45.90625 C 29.363281 -45.90625 27.21875 -45.339844 25.464844 -44.203125 C 23.707031 -43.0625 22.363281 -41.496094 21.433594 -39.503906 C 20.488281 -37.484375 20.015625 -35.15625 20.015625 -32.519531 L 20.015625 -25.640625 C 20.015625 -22.523438 20.546875 -19.886719 21.609375 -17.730469 C 22.652344 -15.605469 24.128906 -14 26.03125 -12.910156 C 27.949219 -11.808594 30.199219 -11.261719 32.777344 -11.261719 C 34.535156 -11.261719 36.128906 -11.515625 37.5625 -12.027344 C 38.972656 -12.527344 40.171875 -13.253906 41.152344 -14.207031 C 42.132812 -15.15625 42.882812 -16.324219 43.398438 -17.714844 L 43.605469 -18.269531 L 59.136719 -16.035156 L 58.917969 -15.234375 C 57.984375 -11.78125 56.300781 -8.765625 53.871094 -6.191406 C 51.449219 -3.628906 48.425781 -1.640625 44.796875 -0.226562 C 41.183594 1.175781 37.074219 1.878906 32.464844 1.878906 Z M 32.464844 0.414062 C 36.890625 0.414062 40.824219 -0.257812 44.265625 -1.597656 C 47.6875 -2.929688 50.535156 -4.796875 52.804688 -7.199219 C 55.066406 -9.59375 56.628906 -12.402344 57.503906 -15.617188 L 58.210938 -15.425781 L 58.105469 -14.699219 L 43.984375 -16.730469 L 44.085938 -17.457031 L 44.773438 -17.203125 C 44.179688 -15.605469 43.3125 -14.253906 42.175781 -13.152344 C 41.039062 -12.054688 39.664062 -11.21875 38.054688 -10.644531 C 36.464844 -10.078125 34.703125 -9.792969 32.777344 -9.792969 C 29.9375 -9.792969 27.445312 -10.40625 25.300781 -11.636719 C 23.140625 -12.875 21.46875 -14.6875 20.292969 -17.082031 C 19.128906 -19.441406 18.546875 -22.292969 18.546875 -25.640625 L 18.546875 -32.519531 C 18.546875 -35.371094 19.066406 -37.90625 20.101562 -40.125 C 21.152344 -42.371094 22.671875 -44.140625 24.667969 -45.433594 C 26.664062 -46.726562 29.074219 -47.375 31.894531 -47.375 C 34.714844 -47.375 37.097656 -46.734375 39.042969 -45.457031 C 40.992188 -44.175781 42.464844 -42.375 43.460938 -40.050781 C 44.4375 -37.769531 44.925781 -35.085938 44.925781 -31.996094 L 44.191406 -31.996094 L 43.949219 -32.6875 L 51.191406 -35.242188 L 51.4375 -34.550781 L 51.4375 -33.816406 L 10.160156 -33.816406 L 10.160156 -34.550781 L 10.894531 -34.550781 L 10.894531 -24.753906 L 10.160156 -24.753906 L 10.160156 -25.488281 L 58.992188 -25.488281 L 58.992188 -24.753906 L 58.257812 -24.753906 L 58.257812 -29.078125 C 58.257812 -33.785156 57.585938 -37.929688 56.246094 -41.511719 C 54.910156 -45.074219 53.039062 -48.042969 50.632812 -50.417969 C 48.222656 -52.792969 45.417969 -54.589844 42.210938 -55.804688 C 38.996094 -57.023438 35.503906 -57.632812 31.738281 -57.632812 C 26.28125 -57.632812 21.523438 -56.410156 17.472656 -53.960938 C 13.421875 -51.511719 10.28125 -48.121094 8.054688 -43.777344 C 5.8125 -39.417969 4.695312 -34.328125 4.695312 -28.503906 C 4.695312 -22.613281 5.820312 -17.5 8.078125 -13.15625 C 10.320312 -8.839844 13.507812 -5.5 17.640625 -3.136719 C 21.78125 -0.769531 26.726562 0.414062 32.464844 0.414062 Z M 32.464844 0.414062 "/></g></g></g><g fill="#f8cc74" fill-opacity="1"><g transform="translate(319.806991, 137.155531)"><g><path d="M 26.265625 1.566406 C 22.136719 1.566406 18.523438 0.664062 15.421875 -1.136719 C 12.308594 -2.949219 9.902344 -5.5625 8.203125 -8.976562 C 6.519531 -12.363281 5.675781 -16.386719 5.675781 -21.054688 L 5.675781 -58.265625 L 22.671875 -58.265625 L 22.671875 -23.816406 C 22.671875 -20.359375 23.539062 -17.691406 25.265625 -15.820312 C 26.980469 -13.960938 29.363281 -13.03125 32.414062 -13.03125 C 34.476562 -13.03125 36.292969 -13.46875 37.867188 -14.347656 C 39.425781 -15.214844 40.648438 -16.496094 41.535156 -18.1875 C 42.433594 -19.90625 42.886719 -22.007812 42.886719 -24.492188 L 42.886719 -58.265625 L 59.933594 -58.265625 L 59.933594 0.734375 L 43.625 0.734375 L 43.394531 -15.222656 L 46.457031 -15.222656 L 46.140625 -14.257812 C 44.5 -9.265625 42.054688 -5.382812 38.804688 -2.621094 C 35.523438 0.171875 31.34375 1.566406 26.265625 1.566406 Z M 26.265625 0.101562 C 30.984375 0.101562 34.847656 -1.179688 37.855469 -3.738281 C 40.894531 -6.324219 43.191406 -9.984375 44.746094 -14.714844 L 45.441406 -14.488281 L 45.441406 -13.753906 L 44.140625 -13.753906 L 44.140625 -14.488281 L 44.875 -14.496094 L 45.082031 -0.0117188 L 44.347656 0 L 44.347656 -0.734375 L 59.199219 -0.734375 L 59.199219 0 L 58.464844 0 L 58.464844 -57.53125 L 59.199219 -57.53125 L 59.199219 -56.800781 L 43.617188 -56.800781 L 43.617188 -57.53125 L 44.351562 -57.53125 L 44.351562 -24.492188 C 44.351562 -21.765625 43.847656 -19.4375 42.835938 -17.507812 C 41.8125 -15.554688 40.394531 -14.074219 38.582031 -13.066406 C 36.785156 -12.066406 34.730469 -11.566406 32.414062 -11.566406 C 28.933594 -11.566406 26.191406 -12.652344 24.1875 -14.824219 C 22.199219 -16.980469 21.207031 -19.976562 21.207031 -23.816406 L 21.207031 -57.53125 L 21.941406 -57.53125 L 21.941406 -56.800781 L 6.410156 -56.800781 L 6.410156 -57.53125 L 7.144531 -57.53125 L 7.144531 -21.054688 C 7.144531 -16.617188 7.933594 -12.808594 9.515625 -9.628906 C 11.082031 -6.476562 13.296875 -4.070312 16.160156 -2.40625 C 19.03125 -0.734375 22.402344 0.101562 26.265625 0.101562 Z M 26.265625 0.101562 "/></g></g></g><g fill="#f8cc74" fill-opacity="1"><g transform="translate(100.603505, 137.155531)"><g><path d="M 6.40625 0 L 6.40625 -57.53125 L 21.46875 -57.53125 L 21.46875 -47.578125 L 22 -47.578125 C 23.039062 -51.085938 24.773438 -53.738281 27.203125 -55.53125 C 29.640625 -57.320312 32.523438 -58.21875 35.859375 -58.21875 C 36.691406 -58.21875 37.554688 -58.179688 38.453125 -58.109375 C 39.359375 -58.035156 40.144531 -57.929688 40.8125 -57.796875 L 40.8125 -44.03125 C 40.144531 -44.238281 39.160156 -44.40625 37.859375 -44.53125 C 36.554688 -44.65625 35.296875 -44.71875 34.078125 -44.71875 C 31.785156 -44.71875 29.707031 -44.210938 27.84375 -43.203125 C 25.988281 -42.191406 24.539062 -40.765625 23.5 -38.921875 C 22.457031 -37.085938 21.9375 -34.921875 21.9375 -32.421875 L 21.9375 0 Z M 6.40625 0 "/></g></g></g><g fill="#f8cc74" fill-opacity="1"><g transform="translate(138.051145, 137.155531)"><g><path d="M 32.46875 1.140625 C 26.59375 1.140625 21.523438 -0.0703125 17.265625 -2.5 C 13.015625 -4.9375 9.734375 -8.375 7.421875 -12.8125 C 5.109375 -17.257812 3.953125 -22.488281 3.953125 -28.5 C 3.953125 -34.445312 5.097656 -39.648438 7.390625 -44.109375 C 9.691406 -48.578125 12.925781 -52.070312 17.09375 -54.59375 C 21.257812 -57.113281 26.140625 -58.375 31.734375 -58.375 C 35.597656 -58.375 39.175781 -57.75 42.46875 -56.5 C 45.769531 -55.25 48.660156 -53.394531 51.140625 -50.9375 C 53.628906 -48.488281 55.5625 -45.429688 56.9375 -41.765625 C 58.3125 -38.097656 59 -33.867188 59 -29.078125 L 59 -24.75 L 10.15625 -24.75 L 10.15625 -34.546875 L 51.4375 -34.546875 L 44.1875 -32 C 44.1875 -34.988281 43.71875 -37.578125 42.78125 -39.765625 C 41.84375 -41.953125 40.460938 -43.644531 38.640625 -44.84375 C 36.816406 -46.039062 34.566406 -46.640625 31.890625 -46.640625 C 29.210938 -46.640625 26.9375 -46.03125 25.0625 -44.8125 C 23.1875 -43.601562 21.753906 -41.9375 20.765625 -39.8125 C 19.773438 -37.695312 19.28125 -35.265625 19.28125 -32.515625 L 19.28125 -25.640625 C 19.28125 -22.410156 19.835938 -19.664062 20.953125 -17.40625 C 22.066406 -15.144531 23.640625 -13.429688 25.671875 -12.265625 C 27.703125 -11.109375 30.070312 -10.53125 32.78125 -10.53125 C 34.625 -10.53125 36.300781 -10.796875 37.8125 -11.328125 C 39.320312 -11.867188 40.601562 -12.648438 41.65625 -13.671875 C 42.71875 -14.703125 43.53125 -15.960938 44.09375 -17.453125 L 58.21875 -15.421875 C 57.3125 -12.085938 55.6875 -9.175781 53.34375 -6.6875 C 51 -4.207031 48.0625 -2.28125 44.53125 -0.90625 C 41.007812 0.457031 36.988281 1.140625 32.46875 1.140625 Z M 32.46875 1.140625 "/></g></g></g><g fill="#f8cc74" fill-opacity="1"><g transform="translate(197.698413, 137.155531)"><g><path d="M 21.9375 -33.046875 L 21.9375 0 L 6.40625 0 L 6.40625 -57.53125 L 21.21875 -57.53125 L 21.421875 -43.046875 L 20.109375 -43.046875 C 21.679688 -47.910156 24.035156 -51.679688 27.171875 -54.359375 C 30.316406 -57.035156 34.359375 -58.375 39.296875 -58.375 C 43.296875 -58.375 46.785156 -57.503906 49.765625 -55.765625 C 52.753906 -54.023438 55.066406 -51.519531 56.703125 -48.25 C 58.335938 -44.988281 59.15625 -41.066406 59.15625 -36.484375 L 59.15625 0 L 43.625 0 L 43.625 -33.71875 C 43.625 -37.363281 42.703125 -40.203125 40.859375 -42.234375 C 39.015625 -44.273438 36.441406 -45.296875 33.140625 -45.296875 C 30.953125 -45.296875 29.015625 -44.816406 27.328125 -43.859375 C 25.648438 -42.898438 24.332031 -41.515625 23.375 -39.703125 C 22.414062 -37.898438 21.9375 -35.679688 21.9375 -33.046875 Z M 21.9375 -33.046875 "/></g></g></g><g fill="#f8cc74" fill-opacity="1"><g transform="translate(260.159711, 137.155531)"><g><path d="M 32.46875 1.140625 C 26.59375 1.140625 21.523438 -0.0703125 17.265625 -2.5 C 13.015625 -4.9375 9.734375 -8.375 7.421875 -12.8125 C 5.109375 -17.257812 3.953125 -22.488281 3.953125 -28.5 C 3.953125 -34.445312 5.097656 -39.648438 7.390625 -44.109375 C 9.691406 -48.578125 12.925781 -52.070312 17.09375 -54.59375 C 21.257812 -57.113281 26.140625 -58.375 31.734375 -58.375 C 35.597656 -58.375 39.175781 -57.75 42.46875 -56.5 C 45.769531 -55.25 48.660156 -53.394531 51.140625 -50.9375 C 53.628906 -48.488281 55.5625 -45.429688 56.9375 -41.765625 C 58.3125 -38.097656 59 -33.867188 59 -29.078125 L 59 -24.75 L 10.15625 -24.75 L 10.15625 -34.546875 L 51.4375 -34.546875 L 44.1875 -32 C 44.1875 -34.988281 43.71875 -37.578125 42.78125 -39.765625 C 41.84375 -41.953125 40.460938 -43.644531 38.640625 -44.84375 C 36.816406 -46.039062 34.566406 -46.640625 31.890625 -46.640625 C 29.210938 -46.640625 26.9375 -46.03125 25.0625 -44.8125 C 23.1875 -43.601562 21.753906 -41.9375 20.765625 -39.8125 C 19.773438 -37.695312 19.28125 -35.265625 19.28125 -32.515625 L 19.28125 -25.640625 C 19.28125 -22.410156 19.835938 -19.664062 20.953125 -17.40625 C 22.066406 -15.144531 23.640625 -13.429688 25.671875 -12.265625 C 27.703125 -11.109375 30.070312 -10.53125 32.78125 -10.53125 C 34.625 -10.53125 36.300781 -10.796875 37.8125 -11.328125 C 39.320312 -11.867188 40.601562 -12.648438 41.65625 -13.671875 C 42.71875 -14.703125 43.53125 -15.960938 44.09375 -17.453125 L 58.21875 -15.421875 C 57.3125 -12.085938 55.6875 -9.175781 53.34375 -6.6875 C 51 -4.207031 48.0625 -2.28125 44.53125 -0.90625 C 41.007812 0.457031 36.988281 1.140625 32.46875 1.140625 Z M 32.46875 1.140625 "/></g></g></g><g fill="#f8cc74" fill-opacity="1"><g transform="translate(319.806991, 137.155531)"><g><path d="M 26.265625 0.828125 C 22.265625 0.828125 18.769531 -0.0351562 15.78125 -1.765625 C 12.800781 -3.503906 10.492188 -6.015625 8.859375 -9.296875 C 7.222656 -12.585938 6.40625 -16.507812 6.40625 -21.0625 L 6.40625 -57.53125 L 21.9375 -57.53125 L 21.9375 -23.8125 C 21.9375 -20.164062 22.863281 -17.332031 24.71875 -15.3125 C 26.582031 -13.300781 29.148438 -12.296875 32.421875 -12.296875 C 34.609375 -12.296875 36.539062 -12.765625 38.21875 -13.703125 C 39.90625 -14.640625 41.226562 -16.019531 42.1875 -17.84375 C 43.144531 -19.675781 43.625 -21.894531 43.625 -24.5 L 43.625 -57.53125 L 59.203125 -57.53125 L 59.203125 0 L 44.34375 0 L 44.140625 -14.484375 L 45.453125 -14.484375 C 43.847656 -9.617188 41.472656 -5.847656 38.328125 -3.171875 C 35.179688 -0.503906 31.160156 0.828125 26.265625 0.828125 Z M 26.265625 0.828125 "/></g></g></g><g clip-path="url(#81494e477a)"><g clip-path="url(#1b63f06901)"><g clip-path="url(#6349dcf5e2)"><path fill="#f8cc74" d="M 77.492188 152.824219 C 86.527344 138.070312 87.167969 119.542969 79.242188 104.191406 C 92.34375 92.925781 98.695312 75.503906 95.851562 58.4375 L 95.664062 57.316406 L 94.523438 57.285156 C 77.234375 56.84375 60.863281 65.554688 51.523438 80.09375 C 35.21875 74.382812 16.960938 77.589844 3.613281 88.585938 L 2.734375 89.308594 L 3.277344 90.3125 C 6.128906 95.558594 9.871094 100.167969 14.261719 103.980469 C 22.582031 111.214844 33.222656 115.605469 44.523438 116.140625 C 47.730469 133.113281 59.640625 147.324219 75.832031 153.394531 L 76.898438 153.792969 Z M 93.300781 60.03125 C 95.5 75.585938 89.667969 91.324219 77.878906 101.71875 C 75.175781 97.132812 71.753906 93.023438 67.6875 89.492188 C 63.625 85.960938 59.082031 83.140625 54.164062 81.101562 C 62.820312 67.984375 77.59375 60.019531 93.300781 60.03125 Z M 6.265625 89.996094 C 18.628906 80.316406 35.171875 77.5 50.070312 82.511719 C 47.457031 87.132812 45.613281 92.148438 44.582031 97.445312 C 43.554688 102.738281 43.382812 108.082031 44.074219 113.351562 C 28.386719 112.417969 14.101562 103.605469 6.265625 89.996094 Z M 46.871094 113.4375 C 46.148438 108.316406 46.289062 103.121094 47.289062 97.972656 C 48.296875 92.824219 50.109375 87.953125 52.691406 83.480469 C 57.496094 85.421875 61.929688 88.140625 65.878906 91.574219 C 69.832031 95.011719 73.140625 99.019531 75.726562 103.507812 C 71.648438 106.691406 67.078125 109.167969 62.128906 110.871094 C 57.167969 112.574219 52.042969 113.4375 46.871094 113.4375 Z M 47.34375 116.195312 C 52.660156 116.144531 57.925781 115.234375 63.023438 113.480469 C 68.117188 111.726562 72.828125 109.203125 77.050781 105.96875 C 84.089844 120.023438 83.597656 136.796875 75.726562 150.394531 C 61.164062 144.515625 50.453125 131.597656 47.34375 116.195312 Z M 47.34375 116.195312 " fill-opacity="1" fill-rule="nonzero"/></g></g></g><g clip-path="url(#abc715279d)"><g clip-path="url(#7a26d564bb)"><g clip-path="url(#af69bda599)"><path fill="#f8cc74" d="M 79.484375 154.554688 C 88.519531 139.804688 89.160156 121.273438 81.238281 105.921875 C 94.335938 94.660156 100.6875 77.234375 97.84375 60.171875 L 97.65625 59.046875 L 96.515625 59.019531 C 79.226562 58.578125 62.855469 67.289062 53.519531 81.824219 C 37.210938 76.113281 18.953125 79.324219 5.605469 90.320312 L 4.726562 91.042969 L 5.269531 92.042969 C 8.121094 97.292969 11.863281 101.898438 16.253906 105.714844 C 24.574219 112.949219 35.214844 117.339844 46.515625 117.875 C 49.726562 134.84375 61.632812 149.058594 77.824219 155.128906 L 78.890625 155.527344 Z M 95.296875 61.761719 C 97.496094 77.320312 91.660156 93.058594 79.871094 103.453125 C 77.167969 98.867188 73.746094 94.757812 69.683594 91.222656 C 65.621094 87.691406 61.078125 84.875 56.15625 82.832031 C 64.8125 69.71875 79.585938 61.75 95.296875 61.761719 Z M 8.257812 91.730469 C 20.621094 82.046875 37.164062 79.230469 52.0625 84.242188 C 49.453125 88.867188 47.609375 93.882812 46.574219 99.179688 C 45.546875 104.46875 45.378906 109.8125 46.070312 115.085938 C 30.378906 114.148438 16.09375 105.339844 8.257812 91.730469 Z M 48.863281 115.167969 C 48.144531 110.046875 48.285156 104.851562 49.285156 99.707031 C 50.289062 94.554688 52.105469 89.6875 54.683594 85.214844 C 59.492188 87.152344 63.921875 89.871094 67.871094 93.308594 C 71.824219 96.742188 75.132812 100.753906 77.71875 105.238281 C 73.640625 108.425781 69.070312 110.898438 64.121094 112.605469 C 59.164062 114.308594 54.035156 115.171875 48.863281 115.167969 Z M 49.335938 117.925781 C 54.652344 117.878906 59.921875 116.96875 65.019531 115.214844 C 70.109375 113.460938 74.820312 110.9375 79.046875 107.703125 C 86.082031 121.757812 85.589844 138.53125 77.71875 152.125 C 63.15625 146.25 52.449219 133.328125 49.335938 117.925781 Z M 49.335938 117.925781 " fill-opacity="1" fill-rule="nonzero"/></g></g></g><g clip-path="url(#276b69f1c3)"><g clip-path="url(#6d50bb2277)"><g clip-path="url(#c0b6194114)"><path fill="#f8cc74" d="M 79.128906 152.855469 C 88.164062 138.105469 88.804688 119.574219 80.882812 104.222656 C 93.980469 92.960938 100.332031 75.535156 97.488281 58.472656 L 97.300781 57.347656 L 96.160156 57.320312 C 78.871094 56.878906 62.5 65.589844 53.164062 80.125 C 36.855469 74.414062 18.597656 77.625 5.25 88.621094 L 4.371094 89.34375 L 4.914062 90.34375 C 7.765625 95.59375 11.511719 100.199219 15.898438 104.015625 C 24.21875 111.25 34.863281 115.640625 46.160156 116.175781 C 49.371094 133.144531 61.277344 147.359375 77.46875 153.429688 L 78.535156 153.828125 Z M 94.941406 60.0625 C 97.140625 75.621094 91.304688 91.359375 79.515625 101.753906 C 76.8125 97.167969 73.390625 93.058594 69.328125 89.523438 C 65.265625 85.992188 60.722656 83.175781 55.800781 81.132812 C 64.457031 68.019531 79.234375 60.050781 94.941406 60.0625 Z M 7.902344 90.03125 C 20.265625 80.347656 36.808594 77.53125 51.707031 82.542969 C 49.097656 87.167969 47.253906 92.183594 46.21875 97.480469 C 45.191406 102.769531 45.023438 108.113281 45.714844 113.386719 C 30.023438 112.449219 15.742188 103.640625 7.902344 90.03125 Z M 48.507812 113.46875 C 47.789062 108.347656 47.929688 103.152344 48.929688 98.007812 C 49.933594 92.855469 51.75 87.988281 54.332031 83.515625 C 59.136719 85.453125 63.566406 88.171875 67.515625 91.609375 C 71.46875 95.042969 74.777344 99.054688 77.363281 103.539062 C 73.285156 106.726562 68.714844 109.199219 63.765625 110.90625 C 58.808594 112.609375 53.679688 113.472656 48.507812 113.46875 Z M 48.980469 116.226562 C 54.296875 116.179688 59.566406 115.269531 64.664062 113.515625 C 69.753906 111.761719 74.464844 109.238281 78.691406 106.003906 C 85.726562 120.058594 85.234375 136.832031 77.363281 150.425781 C 62.800781 144.550781 52.09375 131.628906 48.980469 116.226562 Z M 48.980469 116.226562 " fill-opacity="1" fill-rule="nonzero"/></g></g></g><g clip-path="url(#3f21650088)"><g clip-path="url(#f528fb312e)"><g clip-path="url(#c6a4a79b0f)"><path fill="#f8cc74" d="M 79.128906 151.359375 C 88.164062 136.609375 88.804688 118.078125 80.882812 102.726562 C 93.980469 91.460938 100.332031 74.039062 97.488281 56.976562 L 97.300781 55.851562 L 96.160156 55.824219 C 78.871094 55.382812 62.5 64.09375 53.164062 78.628906 C 36.855469 72.917969 18.597656 76.128906 5.25 87.125 L 4.371094 87.847656 L 4.914062 88.847656 C 7.765625 94.097656 11.511719 98.703125 15.898438 102.519531 C 24.21875 109.753906 34.863281 114.144531 46.160156 114.675781 C 49.371094 131.648438 61.277344 145.859375 77.46875 151.933594 L 78.535156 152.332031 Z M 94.941406 58.566406 C 97.140625 74.125 91.304688 89.863281 79.515625 100.257812 C 76.8125 95.671875 73.390625 91.5625 69.328125 88.027344 C 65.265625 84.496094 60.722656 81.679688 55.800781 79.636719 C 64.457031 66.519531 79.234375 58.554688 94.941406 58.566406 Z M 7.902344 88.535156 C 20.265625 78.851562 36.808594 76.035156 51.707031 81.046875 C 49.097656 85.671875 47.253906 90.6875 46.21875 95.984375 C 45.191406 101.273438 45.023438 106.617188 45.714844 111.890625 C 30.023438 110.953125 15.742188 102.144531 7.902344 88.535156 Z M 48.507812 111.972656 C 47.789062 106.851562 47.929688 101.65625 48.929688 96.511719 C 49.933594 91.359375 51.75 86.488281 54.332031 82.019531 C 59.136719 83.957031 63.566406 86.675781 67.515625 90.109375 C 71.46875 93.546875 74.777344 97.558594 77.363281 102.042969 C 73.285156 105.230469 68.714844 107.703125 63.765625 109.410156 C 58.808594 111.113281 53.679688 111.976562 48.507812 111.972656 Z M 48.980469 114.730469 C 54.296875 114.683594 59.566406 113.769531 64.664062 112.015625 C 69.753906 110.265625 74.464844 107.742188 78.691406 104.507812 C 85.726562 118.5625 85.234375 135.335938 77.363281 148.929688 C 62.800781 143.054688 52.09375 130.132812 48.980469 114.730469 Z M 48.980469 114.730469 " fill-opacity="1" fill-rule="nonzero"/></g></g></g></svg>